<mxfile host="app.diagrams.net" agent="Mozilla/5.0 (Windows NT 10.0; Win64; x64) AppleWebKit/537.36 (KHTML, like Gecko) Chrome/127.0.0.0 Safari/537.36" version="24.7.6">
  <diagram name="Page-1" id="Page-1">
    <mxGraphModel dx="1430" dy="869" grid="1" gridSize="10" guides="1" tooltips="1" connect="1" arrows="1" fold="1" page="1" pageScale="1" pageWidth="850" pageHeight="1100" math="0" shadow="0">
      <root>
        <mxCell id="0" />
        <mxCell id="1" parent="0" />
        <UserObject label="&lt;div style=&quot;font-size: 1px&quot;&gt;&lt;font style=&quot;font-size:29.1px;font-family:Helvetica;color:#000000;direction:ltr;letter-spacing:0px;line-height:120%;opacity:1&quot;&gt;ERDA&lt;/font&gt;&lt;/div&gt;" tags="Background" id="2">
          <mxCell style="verticalAlign=middle;align=center;overflow=width;vsdxID=1;fillColor=#ffffff;gradientColor=none;shape=stencil(nZBRDoQgDERP03+WHsHFe5iISyOCQdT19kIaIxq//Jtp3zTpAFaTaUYNUkwx+F6v1EYD+AUpyRkdKCYFqACrzgf9C352LfuxyWRWg1/yhT/nRE5IsZWuZtCSK8CPeI0e/hF+jV7AJM4PO7KWCyr390bSiNtEtQM=);strokeColor=#000000;spacingTop=-3;spacingBottom=-3;spacingLeft=-3;spacingRight=-3;points=[];labelBackgroundColor=none;rounded=0;html=1;whiteSpace=wrap;" parent="1" vertex="1">
            <mxGeometry x="80" y="40" width="910" height="1040" as="geometry" />
          </mxCell>
        </UserObject>
        <UserObject label="&lt;div style=&quot;font-size: 1px&quot;&gt;&lt;font style=&quot;font-size:11.64px;font-family:Helvetica;color:#000000;direction:ltr;letter-spacing:0px;line-height:120%;opacity:1&quot;&gt;DaSSCo Storage&lt;/font&gt;&lt;/div&gt;" tags="Background" id="3">
          <mxCell style="verticalAlign=middle;align=center;overflow=width;vsdxID=3;fillColor=#ffffff;gradientColor=none;image;aspect=fixed;strokeColor=#000000;spacingTop=-3;spacingBottom=-3;spacingLeft=-3;spacingRight=-3;points=[];labelBackgroundColor=#ffffff;rounded=0;html=1;whiteSpace=wrap;;image=data:image/jpg,/9j/4AAQSkZJRgABAQAAAQABAAD/4gHYSUNDX1BST0ZJTEUAAQEAAAHIAAAAAAQwAABtbnRyUkdCIFhZWiAH4AABAAEAAAAAAABhY3NwAAAAAAAAAAAAAAAAAAAAAAAAAAAAAAAAAAAAAQAA9tYAAQAAAADTLQAAAAAAAAAAAAAAAAAAAAAAAAAAAAAAAAAAAAAAAAAAAAAAAAAAAAAAAAAAAAAAAAAAAAlkZXNjAAAA8AAAACRyWFlaAAABFAAAABRnWFlaAAABKAAAABRiWFlaAAABPAAAABR3dHB0AAABUAAAABRyVFJDAAABZAAAAChnVFJDAAABZAAAAChiVFJDAAABZAAAAChjcHJ0AAABjAAAADxtbHVjAAAAAAAAAAEAAAAMZW5VUwAAAAgAAAAcAHMAUgBHAEJYWVogAAAAAAAAb6IAADj1AAADkFhZWiAAAAAAAABimQAAt4UAABjaWFlaIAAAAAAAACSgAAAPhAAAts9YWVogAAAAAAAA9tYAAQAAAADTLXBhcmEAAAAAAAQAAAACZmYAAPKnAAANWQAAE9AAAApbAAAAAAAAAABtbHVjAAAAAAAAAAEAAAAMZW5VUwAAACAAAAAcAEcAbwBvAGcAbABlACAASQBuAGMALgAgADIAMAAxADb/2wBDAAMCAgICAgMCAgIDAwMDBAYEBAQEBAgGBgUGCQgKCgkICQkKDA8MCgsOCwkJDRENDg8QEBEQCgwSExIQEw8QEBD/2wBDAQMDAwQDBAgEBAgQCwkLEBAQEBAQEBAQEBAQEBAQEBAQEBAQEBAQEBAQEBAQEBAQEBAQEBAQEBAQEBAQEBAQEBD/wAARCAAPABIDASIAAhEBAxEB/8QAFwABAQEBAAAAAAAAAAAAAAAABgABCP/EACYQAAEDAgUDBQAAAAAAAAAAAAEAAgMFEgQGERMhIlGhJTFBUpL/xAAXAQADAQAAAAAAAAAAAAAAAAADBAcJ/8QAJREAAQIFAQkAAAAAAAAAAAAAAQIDAAQFESExBhRBUlSBkZLR/9oADAMBAAIRAxEAPwDqd1CvwTafJUZHQC32giD+CCOuy747pZBm3MkETII69j7YwGtunc46DuSdSju5IOLeQt3Jfr5WeaKlWmjdt5xJtbClDA0GLacItC5RlwWWkHsITjOuadB69i/2pGhvka2+QpMCsbSdS/7ufYFuEpyJ8CP/2Q==" parent="1" vertex="1">
            <mxGeometry x="228" y="190" width="69" height="56" as="geometry" />
          </mxCell>
        </UserObject>
        <UserObject label="&lt;div style=&quot;font-size: 1px&quot;&gt;&lt;font style=&quot;font-size:11.64px;font-family:Helvetica;color:#000000;direction:ltr;letter-spacing:0px;line-height:120%;opacity:1&quot;&gt;OWRL&lt;/font&gt;&lt;/div&gt;" tags="Background" id="4">
          <mxCell style="verticalAlign=middle;align=center;overflow=width;vsdxID=4;fillColor=#ffffff;gradientColor=none;image;aspect=fixed;strokeColor=#000000;spacingTop=-3;spacingBottom=-3;spacingLeft=-3;spacingRight=-3;points=[];labelBackgroundColor=#ffffff;rounded=0;html=1;whiteSpace=wrap;;image=data:image/jpg,/9j/4AAQSkZJRgABAQAAAQABAAD/4gHYSUNDX1BST0ZJTEUAAQEAAAHIAAAAAAQwAABtbnRyUkdCIFhZWiAH4AABAAEAAAAAAABhY3NwAAAAAAAAAAAAAAAAAAAAAAAAAAAAAAAAAAAAAQAA9tYAAQAAAADTLQAAAAAAAAAAAAAAAAAAAAAAAAAAAAAAAAAAAAAAAAAAAAAAAAAAAAAAAAAAAAAAAAAAAAlkZXNjAAAA8AAAACRyWFlaAAABFAAAABRnWFlaAAABKAAAABRiWFlaAAABPAAAABR3dHB0AAABUAAAABRyVFJDAAABZAAAAChnVFJDAAABZAAAAChiVFJDAAABZAAAAChjcHJ0AAABjAAAADxtbHVjAAAAAAAAAAEAAAAMZW5VUwAAAAgAAAAcAHMAUgBHAEJYWVogAAAAAAAAb6IAADj1AAADkFhZWiAAAAAAAABimQAAt4UAABjaWFlaIAAAAAAAACSgAAAPhAAAts9YWVogAAAAAAAA9tYAAQAAAADTLXBhcmEAAAAAAAQAAAACZmYAAPKnAAANWQAAE9AAAApbAAAAAAAAAABtbHVjAAAAAAAAAAEAAAAMZW5VUwAAACAAAAAcAEcAbwBvAGcAbABlACAASQBuAGMALgAgADIAMAAxADb/2wBDAAMCAgICAgMCAgIDAwMDBAYEBAQEBAgGBgUGCQgKCgkICQkKDA8MCgsOCwkJDRENDg8QEBEQCgwSExIQEw8QEBD/2wBDAQMDAwQDBAgEBAgQCwkLEBAQEBAQEBAQEBAQEBAQEBAQEBAQEBAQEBAQEBAQEBAQEBAQEBAQEBAQEBAQEBAQEBD/wAARCAAPABIDASIAAhEBAxEB/8QAFwABAQEBAAAAAAAAAAAAAAAABgABCP/EACYQAAEDAgUDBQAAAAAAAAAAAAEAAgMFEgQGERMhIlGhJTFBUpL/xAAXAQADAQAAAAAAAAAAAAAAAAADBAcJ/8QAJREAAQIFAQkAAAAAAAAAAAAAAQIDAAQFESExBhRBUlSBkZLR/9oADAMBAAIRAxEAPwDqd1CvwTafJUZHQC32giD+CCOuy747pZBm3MkETII69j7YwGtunc46DuSdSju5IOLeQt3Jfr5WeaKlWmjdt5xJtbClDA0GLacItC5RlwWWkHsITjOuadB69i/2pGhvka2+QpMCsbSdS/7ufYFuEpyJ8CP/2Q==" parent="1" vertex="1">
            <mxGeometry x="366" y="270" width="69" height="56" as="geometry" />
          </mxCell>
        </UserObject>
        <UserObject label="&lt;div style=&quot;font-size: 1px&quot;&gt;&lt;font style=&quot;font-size:11.64px;font-family:Helvetica;color:#000000;direction:ltr;letter-spacing:0px;line-height:120%;opacity:1&quot;&gt;Entomology&lt;/font&gt;&lt;/div&gt;" tags="Background" id="5">
          <mxCell style="verticalAlign=middle;align=center;overflow=width;vsdxID=9;fillColor=#ffffff;gradientColor=none;image;aspect=fixed;strokeColor=#000000;spacingTop=-3;spacingBottom=-3;spacingLeft=-3;spacingRight=-3;points=[];labelBackgroundColor=#ffffff;rounded=0;html=1;whiteSpace=wrap;;image=data:image/jpg,/9j/4AAQSkZJRgABAQAAAQABAAD/4gHYSUNDX1BST0ZJTEUAAQEAAAHIAAAAAAQwAABtbnRyUkdCIFhZWiAH4AABAAEAAAAAAABhY3NwAAAAAAAAAAAAAAAAAAAAAAAAAAAAAAAAAAAAAQAA9tYAAQAAAADTLQAAAAAAAAAAAAAAAAAAAAAAAAAAAAAAAAAAAAAAAAAAAAAAAAAAAAAAAAAAAAAAAAAAAAlkZXNjAAAA8AAAACRyWFlaAAABFAAAABRnWFlaAAABKAAAABRiWFlaAAABPAAAABR3dHB0AAABUAAAABRyVFJDAAABZAAAAChnVFJDAAABZAAAAChiVFJDAAABZAAAAChjcHJ0AAABjAAAADxtbHVjAAAAAAAAAAEAAAAMZW5VUwAAAAgAAAAcAHMAUgBHAEJYWVogAAAAAAAAb6IAADj1AAADkFhZWiAAAAAAAABimQAAt4UAABjaWFlaIAAAAAAAACSgAAAPhAAAts9YWVogAAAAAAAA9tYAAQAAAADTLXBhcmEAAAAAAAQAAAACZmYAAPKnAAANWQAAE9AAAApbAAAAAAAAAABtbHVjAAAAAAAAAAEAAAAMZW5VUwAAACAAAAAcAEcAbwBvAGcAbABlACAASQBuAGMALgAgADIAMAAxADb/2wBDAAMCAgICAgMCAgIDAwMDBAYEBAQEBAgGBgUGCQgKCgkICQkKDA8MCgsOCwkJDRENDg8QEBEQCgwSExIQEw8QEBD/2wBDAQMDAwQDBAgEBAgQCwkLEBAQEBAQEBAQEBAQEBAQEBAQEBAQEBAQEBAQEBAQEBAQEBAQEBAQEBAQEBAQEBAQEBD/wAARCAAPABIDASIAAhEBAxEB/8QAFwABAQEBAAAAAAAAAAAAAAAABgABCP/EACYQAAEDAgUDBQAAAAAAAAAAAAEAAgMFEgQGERMhIlGhJTFBUpL/xAAXAQADAQAAAAAAAAAAAAAAAAADBAcJ/8QAJREAAQIFAQkAAAAAAAAAAAAAAQIDAAQFESExBhRBUlSBkZLR/9oADAMBAAIRAxEAPwDqd1CvwTafJUZHQC32giD+CCOuy747pZBm3MkETII69j7YwGtunc46DuSdSju5IOLeQt3Jfr5WeaKlWmjdt5xJtbClDA0GLacItC5RlwWWkHsITjOuadB69i/2pGhvka2+QpMCsbSdS/7ufYFuEpyJ8CP/2Q==" parent="1" vertex="1">
            <mxGeometry x="504" y="530" width="69" height="56" as="geometry" />
          </mxCell>
        </UserObject>
        <UserObject label="&lt;div style=&quot;font-size: 1px&quot;&gt;&lt;font style=&quot;font-size:11.64px;font-family:Helvetica;color:#000000;direction:ltr;letter-spacing:0px;line-height:120%;opacity:1&quot;&gt;NHMD&lt;/font&gt;&lt;/div&gt;" tags="Background" id="6">
          <mxCell style="verticalAlign=middle;align=center;overflow=width;vsdxID=8;fillColor=#ffffff;gradientColor=none;image;aspect=fixed;strokeColor=#000000;spacingTop=-3;spacingBottom=-3;spacingLeft=-3;spacingRight=-3;points=[];labelBackgroundColor=#ffffff;rounded=0;html=1;whiteSpace=wrap;;image=data:image/jpg,/9j/4AAQSkZJRgABAQAAAQABAAD/4gHYSUNDX1BST0ZJTEUAAQEAAAHIAAAAAAQwAABtbnRyUkdCIFhZWiAH4AABAAEAAAAAAABhY3NwAAAAAAAAAAAAAAAAAAAAAAAAAAAAAAAAAAAAAQAA9tYAAQAAAADTLQAAAAAAAAAAAAAAAAAAAAAAAAAAAAAAAAAAAAAAAAAAAAAAAAAAAAAAAAAAAAAAAAAAAAlkZXNjAAAA8AAAACRyWFlaAAABFAAAABRnWFlaAAABKAAAABRiWFlaAAABPAAAABR3dHB0AAABUAAAABRyVFJDAAABZAAAAChnVFJDAAABZAAAAChiVFJDAAABZAAAAChjcHJ0AAABjAAAADxtbHVjAAAAAAAAAAEAAAAMZW5VUwAAAAgAAAAcAHMAUgBHAEJYWVogAAAAAAAAb6IAADj1AAADkFhZWiAAAAAAAABimQAAt4UAABjaWFlaIAAAAAAAACSgAAAPhAAAts9YWVogAAAAAAAA9tYAAQAAAADTLXBhcmEAAAAAAAQAAAACZmYAAPKnAAANWQAAE9AAAApbAAAAAAAAAABtbHVjAAAAAAAAAAEAAAAMZW5VUwAAACAAAAAcAEcAbwBvAGcAbABlACAASQBuAGMALgAgADIAMAAxADb/2wBDAAMCAgICAgMCAgIDAwMDBAYEBAQEBAgGBgUGCQgKCgkICQkKDA8MCgsOCwkJDRENDg8QEBEQCgwSExIQEw8QEBD/2wBDAQMDAwQDBAgEBAgQCwkLEBAQEBAQEBAQEBAQEBAQEBAQEBAQEBAQEBAQEBAQEBAQEBAQEBAQEBAQEBAQEBAQEBD/wAARCAAPABIDASIAAhEBAxEB/8QAFwABAQEBAAAAAAAAAAAAAAAABgABCP/EACYQAAEDAgUDBQAAAAAAAAAAAAEAAgMFEgQGERMhIlGhJTFBUpL/xAAXAQADAQAAAAAAAAAAAAAAAAADBAcJ/8QAJREAAQIFAQkAAAAAAAAAAAAAAQIDAAQFESExBhRBUlSBkZLR/9oADAMBAAIRAxEAPwDqd1CvwTafJUZHQC32giD+CCOuy747pZBm3MkETII69j7YwGtunc46DuSdSju5IOLeQt3Jfr5WeaKlWmjdt5xJtbClDA0GLacItC5RlwWWkHsITjOuadB69i/2pGhvka2+QpMCsbSdS/7ufYFuEpyJ8CP/2Q==" parent="1" vertex="1">
            <mxGeometry x="366" y="450" width="69" height="56" as="geometry" />
          </mxCell>
        </UserObject>
        <UserObject label="&lt;div style=&quot;font-size: 1px&quot;&gt;&lt;font style=&quot;font-size:11.64px;font-family:Helvetica;color:#000000;direction:ltr;letter-spacing:0px;line-height:120%;opacity:1&quot;&gt;WNAD&lt;/font&gt;&lt;/div&gt;" tags="Background" id="7">
          <mxCell style="verticalAlign=middle;align=center;overflow=width;vsdxID=6;fillColor=#ffffff;gradientColor=none;image;aspect=fixed;strokeColor=#000000;spacingTop=-3;spacingBottom=-3;spacingLeft=-3;spacingRight=-3;points=[];labelBackgroundColor=#ffffff;rounded=0;html=1;whiteSpace=wrap;;image=data:image/jpg,/9j/4AAQSkZJRgABAQAAAQABAAD/4gHYSUNDX1BST0ZJTEUAAQEAAAHIAAAAAAQwAABtbnRyUkdCIFhZWiAH4AABAAEAAAAAAABhY3NwAAAAAAAAAAAAAAAAAAAAAAAAAAAAAAAAAAAAAQAA9tYAAQAAAADTLQAAAAAAAAAAAAAAAAAAAAAAAAAAAAAAAAAAAAAAAAAAAAAAAAAAAAAAAAAAAAAAAAAAAAlkZXNjAAAA8AAAACRyWFlaAAABFAAAABRnWFlaAAABKAAAABRiWFlaAAABPAAAABR3dHB0AAABUAAAABRyVFJDAAABZAAAAChnVFJDAAABZAAAAChiVFJDAAABZAAAAChjcHJ0AAABjAAAADxtbHVjAAAAAAAAAAEAAAAMZW5VUwAAAAgAAAAcAHMAUgBHAEJYWVogAAAAAAAAb6IAADj1AAADkFhZWiAAAAAAAABimQAAt4UAABjaWFlaIAAAAAAAACSgAAAPhAAAts9YWVogAAAAAAAA9tYAAQAAAADTLXBhcmEAAAAAAAQAAAACZmYAAPKnAAANWQAAE9AAAApbAAAAAAAAAABtbHVjAAAAAAAAAAEAAAAMZW5VUwAAACAAAAAcAEcAbwBvAGcAbABlACAASQBuAGMALgAgADIAMAAxADb/2wBDAAMCAgICAgMCAgIDAwMDBAYEBAQEBAgGBgUGCQgKCgkICQkKDA8MCgsOCwkJDRENDg8QEBEQCgwSExIQEw8QEBD/2wBDAQMDAwQDBAgEBAgQCwkLEBAQEBAQEBAQEBAQEBAQEBAQEBAQEBAQEBAQEBAQEBAQEBAQEBAQEBAQEBAQEBAQEBD/wAARCAAPABIDASIAAhEBAxEB/8QAFwABAQEBAAAAAAAAAAAAAAAABgABCP/EACYQAAEDAgUDBQAAAAAAAAAAAAEAAgMFEgQGERMhIlGhJTFBUpL/xAAXAQADAQAAAAAAAAAAAAAAAAADBAcJ/8QAJREAAQIFAQkAAAAAAAAAAAAAAQIDAAQFESExBhRBUlSBkZLR/9oADAMBAAIRAxEAPwDqd1CvwTafJUZHQC32giD+CCOuy747pZBm3MkETII69j7YwGtunc46DuSdSju5IOLeQt3Jfr5WeaKlWmjdt5xJtbClDA0GLacItC5RlwWWkHsITjOuadB69i/2pGhvka2+QpMCsbSdS/7ufYFuEpyJ8CP/2Q==" parent="1" vertex="1">
            <mxGeometry x="366" y="360" width="69" height="56" as="geometry" />
          </mxCell>
        </UserObject>
        <UserObject label="&lt;div style=&quot;font-size: 1px&quot;&gt;&lt;font style=&quot;font-size:11.64px;font-family:Helvetica;color:#000000;direction:ltr;letter-spacing:0px;line-height:120%;opacity:1&quot;&gt;Mammalogy&lt;/font&gt;&lt;/div&gt;" tags="Background" id="8">
          <mxCell style="verticalAlign=middle;align=center;overflow=width;vsdxID=12;fillColor=#ffffff;gradientColor=none;image;aspect=fixed;strokeColor=#000000;spacingTop=-3;spacingBottom=-3;spacingLeft=-3;spacingRight=-3;points=[];labelBackgroundColor=#ffffff;rounded=0;html=1;whiteSpace=wrap;;image=data:image/jpg,/9j/4AAQSkZJRgABAQAAAQABAAD/4gHYSUNDX1BST0ZJTEUAAQEAAAHIAAAAAAQwAABtbnRyUkdCIFhZWiAH4AABAAEAAAAAAABhY3NwAAAAAAAAAAAAAAAAAAAAAAAAAAAAAAAAAAAAAQAA9tYAAQAAAADTLQAAAAAAAAAAAAAAAAAAAAAAAAAAAAAAAAAAAAAAAAAAAAAAAAAAAAAAAAAAAAAAAAAAAAlkZXNjAAAA8AAAACRyWFlaAAABFAAAABRnWFlaAAABKAAAABRiWFlaAAABPAAAABR3dHB0AAABUAAAABRyVFJDAAABZAAAAChnVFJDAAABZAAAAChiVFJDAAABZAAAAChjcHJ0AAABjAAAADxtbHVjAAAAAAAAAAEAAAAMZW5VUwAAAAgAAAAcAHMAUgBHAEJYWVogAAAAAAAAb6IAADj1AAADkFhZWiAAAAAAAABimQAAt4UAABjaWFlaIAAAAAAAACSgAAAPhAAAts9YWVogAAAAAAAA9tYAAQAAAADTLXBhcmEAAAAAAAQAAAACZmYAAPKnAAANWQAAE9AAAApbAAAAAAAAAABtbHVjAAAAAAAAAAEAAAAMZW5VUwAAACAAAAAcAEcAbwBvAGcAbABlACAASQBuAGMALgAgADIAMAAxADb/2wBDAAMCAgICAgMCAgIDAwMDBAYEBAQEBAgGBgUGCQgKCgkICQkKDA8MCgsOCwkJDRENDg8QEBEQCgwSExIQEw8QEBD/2wBDAQMDAwQDBAgEBAgQCwkLEBAQEBAQEBAQEBAQEBAQEBAQEBAQEBAQEBAQEBAQEBAQEBAQEBAQEBAQEBAQEBAQEBD/wAARCAAPABIDASIAAhEBAxEB/8QAFwABAQEBAAAAAAAAAAAAAAAABgABCP/EACYQAAEDAgUDBQAAAAAAAAAAAAEAAgMFEgQGERMhIlGhJTFBUpL/xAAXAQADAQAAAAAAAAAAAAAAAAADBAcJ/8QAJREAAQIFAQkAAAAAAAAAAAAAAQIDAAQFESExBhRBUlSBkZLR/9oADAMBAAIRAxEAPwDqd1CvwTafJUZHQC32giD+CCOuy747pZBm3MkETII69j7YwGtunc46DuSdSju5IOLeQt3Jfr5WeaKlWmjdt5xJtbClDA0GLacItC5RlwWWkHsITjOuadB69i/2pGhvka2+QpMCsbSdS/7ufYFuEpyJ8CP/2Q==" parent="1" vertex="1">
            <mxGeometry x="504" y="620" width="69" height="56" as="geometry" />
          </mxCell>
        </UserObject>
        <UserObject label="&lt;div style=&quot;font-size: 1px&quot;&gt;&lt;font style=&quot;font-size:11.64px;font-family:Helvetica;color:#000000;direction:ltr;letter-spacing:0px;line-height:120%;opacity:1&quot;&gt;{Asset Guid}&lt;/font&gt;&lt;/div&gt;" tags="Background" id="9">
          <mxCell style="verticalAlign=middle;align=center;overflow=width;vsdxID=14;fillColor=#ffffff;gradientColor=none;image;aspect=fixed;strokeColor=#000000;spacingTop=-3;spacingBottom=-3;spacingLeft=-3;spacingRight=-3;points=[];labelBackgroundColor=#ffffff;rounded=0;html=1;whiteSpace=wrap;;image=data:image/jpg,/9j/4AAQSkZJRgABAQAAAQABAAD/4gHYSUNDX1BST0ZJTEUAAQEAAAHIAAAAAAQwAABtbnRyUkdCIFhZWiAH4AABAAEAAAAAAABhY3NwAAAAAAAAAAAAAAAAAAAAAAAAAAAAAAAAAAAAAQAA9tYAAQAAAADTLQAAAAAAAAAAAAAAAAAAAAAAAAAAAAAAAAAAAAAAAAAAAAAAAAAAAAAAAAAAAAAAAAAAAAlkZXNjAAAA8AAAACRyWFlaAAABFAAAABRnWFlaAAABKAAAABRiWFlaAAABPAAAABR3dHB0AAABUAAAABRyVFJDAAABZAAAAChnVFJDAAABZAAAAChiVFJDAAABZAAAAChjcHJ0AAABjAAAADxtbHVjAAAAAAAAAAEAAAAMZW5VUwAAAAgAAAAcAHMAUgBHAEJYWVogAAAAAAAAb6IAADj1AAADkFhZWiAAAAAAAABimQAAt4UAABjaWFlaIAAAAAAAACSgAAAPhAAAts9YWVogAAAAAAAA9tYAAQAAAADTLXBhcmEAAAAAAAQAAAACZmYAAPKnAAANWQAAE9AAAApbAAAAAAAAAABtbHVjAAAAAAAAAAEAAAAMZW5VUwAAACAAAAAcAEcAbwBvAGcAbABlACAASQBuAGMALgAgADIAMAAxADb/2wBDAAMCAgICAgMCAgIDAwMDBAYEBAQEBAgGBgUGCQgKCgkICQkKDA8MCgsOCwkJDRENDg8QEBEQCgwSExIQEw8QEBD/2wBDAQMDAwQDBAgEBAgQCwkLEBAQEBAQEBAQEBAQEBAQEBAQEBAQEBAQEBAQEBAQEBAQEBAQEBAQEBAQEBAQEBAQEBD/wAARCAAPABIDASIAAhEBAxEB/8QAFwABAQEBAAAAAAAAAAAAAAAABgABCP/EACYQAAEDAgUDBQAAAAAAAAAAAAEAAgMFEgQGERMhIlGhJTFBUpL/xAAXAQADAQAAAAAAAAAAAAAAAAADBAcJ/8QAJREAAQIFAQkAAAAAAAAAAAAAAQIDAAQFESExBhRBUlSBkZLR/9oADAMBAAIRAxEAPwDqd1CvwTafJUZHQC32giD+CCOuy747pZBm3MkETII69j7YwGtunc46DuSdSju5IOLeQt3Jfr5WeaKlWmjdt5xJtbClDA0GLacItC5RlwWWkHsITjOuadB69i/2pGhvka2+QpMCsbSdS/7ufYFuEpyJ8CP/2Q==" parent="1" vertex="1">
            <mxGeometry x="641" y="700" width="69" height="56" as="geometry" />
          </mxCell>
        </UserObject>
        <UserObject label="" tags="Background" id="10">
          <mxCell style="vsdxID=2110000;fillColor=none;gradientColor=none;strokeColor=none;spacingTop=-3;spacingBottom=-3;spacingLeft=-3;spacingRight=-3;points=[];labelBackgroundColor=none;rounded=0;html=1;whiteSpace=wrap;" parent="1" vertex="1">
            <mxGeometry x="785" y="780" width="56" height="69" as="geometry" />
          </mxCell>
        </UserObject>
        <mxCell id="12" value="&lt;div style=&quot;font-size: 1px&quot;&gt;&lt;font style=&quot;font-size:11.64px;font-family:Helvetica;color:#000000;direction:ltr;letter-spacing:0px;line-height:120%;opacity:1&quot;&gt;CT Scan&lt;/font&gt;&lt;/div&gt;" style="verticalAlign=middle;align=center;overflow=width;vsdxID=16;fillColor=#ffffff;gradientColor=none;image;aspect=fixed;image=data:image/png,iVBORw0KGgoAAAANSUhEUgAAAA8AAAASCAYAAACEnoQPAAAAAXNSR0IArs4c6QAAAmNJREFUOE91U11IU2EYft6zGJuVoRQUiVghJAbtJhKC/i6km6CIzIgkAqlEIroIhK4tIyIQYQm5kmqiw0K66aYuNMgPXG5gtWU/5s+abm3O2v+3E985Z2dnW3035+X7zvO8z/e8z0eXn0XW4mlsAGQQCDJBlPrKIpNw+sI2+XaDXxwSZP2YOoeivPfMJklFCKRhyUDLoxWM+JeDyPFDuGPzGZmpwxnlfa2l4AJRiyOEEX9QMIYg02HqaZzJC1PBonNRUyFNSAROO0JwCbB6nQgkOoruxmnBRu1PfvH+c1X/lX1yIIgXsyENrDDEQNSMW3smqW0wzB+fry4DK8JloOtlBK5P4c/RBJfybqwzUcpWbT1LrY4V7rywuQSsyZaBuUgW7Eca6Yys+xmO5yDn6C2derjMXRe36Kyq6YU7i255FXlffMEMxmYSjI73B/hY+1bJPv4HgdWcpqxk2DoD4VijGVXrCc89CUbN9iX+6tI2adidVIHGcWt1YUtGbZUJlRXAqCfO6EjfAn/dsV1640tp01CGoLIUfxRui5lQaQGGvb8ZHeid5xOdNZJ9PA7PQkaXrcTQCNbqtiYrNlqAIc8ao3335zi7WquEpGBMmV6NVN33/kzh6VSM0d573/j0tTrJPhHHu69prVvhkTTVmXHlYIUOFifeQAqDU1FGu+9+4R+v75Qmv6cMD0MDa5D9O8xFnacXk3C4Y4zqe2a5/8YuJST5POv1vx8a3i8lMcBWGdV0+/l8V31ZwhSry8amNnAvJvGARRhZb37IpnOySfwo3BV51mcmcpcz7ms/ScCJhsrRv9K1JXKzs1IzAAAAAElFTkSuQmCC;strokeColor=#000000;spacingTop=-3;spacingBottom=-3;spacingLeft=-3;spacingRight=-3;points=[];labelBackgroundColor=#ffffff;rounded=0;html=1;whiteSpace=wrap;" parent="10" vertex="1">
          <mxGeometry width="56" height="69" as="geometry" />
        </mxCell>
        <mxCell id="13" style="vsdxID=22;fillColor=#ffffff;gradientColor=none;image;aspect=fixed;strokeColor=#000000;spacingTop=-3;spacingBottom=-3;spacingLeft=-3;spacingRight=-3;points=[];labelBackgroundColor=#ffffff;rounded=0;html=1;whiteSpace=wrap;;image=data:image/jpg,/9j/4AAQSkZJRgABAQAAAQABAAD/4gHYSUNDX1BST0ZJTEUAAQEAAAHIAAAAAAQwAABtbnRyUkdCIFhZWiAH4AABAAEAAAAAAABhY3NwAAAAAAAAAAAAAAAAAAAAAAAAAAAAAAAAAAAAAQAA9tYAAQAAAADTLQAAAAAAAAAAAAAAAAAAAAAAAAAAAAAAAAAAAAAAAAAAAAAAAAAAAAAAAAAAAAAAAAAAAAlkZXNjAAAA8AAAACRyWFlaAAABFAAAABRnWFlaAAABKAAAABRiWFlaAAABPAAAABR3dHB0AAABUAAAABRyVFJDAAABZAAAAChnVFJDAAABZAAAAChiVFJDAAABZAAAAChjcHJ0AAABjAAAADxtbHVjAAAAAAAAAAEAAAAMZW5VUwAAAAgAAAAcAHMAUgBHAEJYWVogAAAAAAAAb6IAADj1AAADkFhZWiAAAAAAAABimQAAt4UAABjaWFlaIAAAAAAAACSgAAAPhAAAts9YWVogAAAAAAAA9tYAAQAAAADTLXBhcmEAAAAAAAQAAAACZmYAAPKnAAANWQAAE9AAAApbAAAAAAAAAABtbHVjAAAAAAAAAAEAAAAMZW5VUwAAACAAAAAcAEcAbwBvAGcAbABlACAASQBuAGMALgAgADIAMAAxADb/2wBDAAMCAgICAgMCAgIDAwMDBAYEBAQEBAgGBgUGCQgKCgkICQkKDA8MCgsOCwkJDRENDg8QEBEQCgwSExIQEw8QEBD/2wBDAQMDAwQDBAgEBAgQCwkLEBAQEBAQEBAQEBAQEBAQEBAQEBAQEBAQEBAQEBAQEBAQEBAQEBAQEBAQEBAQEBAQEBD/wAARCAD6APoDASIAAhEBAxEB/8QAHgABAAICAgMBAAAAAAAAAAAAAAgJBgcCCgMEBQH/xABPEAABAwIEAAgHDAcGBQUAAAABAAIDBAUGBwgRCRIZITFBUVcTMjhCdbKzFBgiNnFydpKTlNLTIzdSYWOVtBUWgZGh0SVTWGKiQ4KmwdT/xAAcAQEBAQEBAQEBAQAAAAAAAAAABgcFCAQCAQP/xAA+EQABAQMIAwwLAQEBAQAAAAAAAQIEBQMGESExQVFxElJhExQWIjRCU6GxwdHSBxUXNTZUc5GissIygWLw/9oADAMBAAIRAxEAPwCxPOrOvCGRuEXYoxVI+WSZzoaChhI8NWTBpIY3foaObjOPM0HrJANcea2r/OjNGtnaMST4dtEgDGWy0SuhYGg+fID4SQnr3PFPU0dC/dX2bFfmjnPeI/dIdaMNzy2i2xsPwA2N5bJJ+8veCd+wNHUtJKIisVlZeVWTkloYSqq89HTJmS5wxzk3x8k0bl20Ra0pRmmtERFqpotW2mxaDzVddW3CY1FfWT1Mp6XzSF7j/iedeFEXEtNHRERKECIi/gCIiAIiIAiIgCIiAIiIAiIgCIiAIiIAiIgCIiAIiIDlHJJE8SRPcx7TuHNOxB+VbAwLqAziy5rIanDGP7uyKJ4caOoqXT0r9up0TyW8/RuAD2ELXqL9sSjckukwqouw+d5dHd8YWTeGEbZW5URU6y0fTLq0w9ntGcN3iljs2MKaEzSUjSfAVkYPwnwOJJ3HMXMd8IA7guAcRIFUnYQxVecD4otmL8PVPue42mpZVU7+kcZp6COtpG4I6wSFcBhLNLCWJ8K2bEpvFHTf2tb6au8C6Ubx+Fja/infrHG2/wAFaQeJK9yasSy8Zm/FDzzP6aDECeWHhwZXcpSmq3RVLslu/wC7Cm6uq5rhW1FfUHeWplfM89rnEk/6leFEUTaejkREShAiIv4DcunTK3KjOG/f3MxhjS6YavtQf+HFrIn09cf+WC4Ask6Nmknjc+xB2aZN8mrgfvLvn3SFQBillglZNDI6OSNwcx7Ts5rhzggjoKsP0g6vosfRUmWOZ1wbHiaNoittylds26NHRG89U/YfP+d43dhKuUsu4vLCaVy117Frt/8As81nxJzhh7CxGEy7W5p/pihlVZ/9JSiqqYpdbZZ87k1cD95d8+6QpyauB+8u+fdIVMhFSep3Lo+tfEyPh7OL5pfsz5SG/Jq4H7y7590hTk1cD95d8+6QqZCJ6ncuj618Rw9nF80v2Z8pDfk1cD95d8+6QpyauB+8u+fdIVMhE9TuXR9a+I4ezi+aX7M+UhvyauB+8u+fdIU5NXA/eXfPukKmQiep3Lo+tfEcPZxfNL9mfKQ35NXA/eXfPukKcmrgfvLvn3SFTIRPU7l0fWviOHs4vml+zPlIb8mrgfvLvn3SFOTVwP3l3z7pCpkInqdy6PrXxHD2cXzS/ZnykN+TVwP3l3z7pCnJq4H7y7590hUyET1O5dH1r4jh7OL5pfsz5SG/Jq4H7y7590hTk1cD95l8+6QqZCJ6ncuj618Rw9nF80v2Z8pDfk1cD95d8+6QpyauB+8u+fdIVMhE9TuXR9a+I4ezi+aX7M+UhvyauB+8u+fdIU5NXA/eXfPukKmQiep3Lo+tfEcPZxfNL9mfKQ35NXA/eXfPukKcmrgfvLvn3SFTIRPU7l0fWviOHs4vml+zPlK4tQ2hyqylwTNj3CGKpL1QW3Z1ygq4mwzRRuc1rZIy07PAcfhDmIGxG/PtFRW5aqfJ4x36Kf6zVUapeNOkk6S6JIpQipSbP6O44+xyGyko/NaTTDdCLQiKqUItdFV4WZUGa2KrdQ09vp6naKliZDGNzzNaAB/oFhqLksttMf5WgupZ3knhESVZRaMQiIvwf6m5MrdOl+zhyoxHjDBe9RfcNV7Wm3dddTuiDi2P+I0tJDfO4xHSGg6dlilglfDNG6OSNxa9jhs5rhzEEHoKn9wavxHxl6Vp/YlfR1faQYsfRVeZ2WNvbHiaNpluVtibs26NHTIwdU/aPP8AneN3WoSss5MPMh/qitMa7U2mayc+GIfOGXhMRWiT0k0GtVVZRaGtiqtS3X1WV3LlFLLBKyaGR0ckbg5j2nZzXDnBBHQUlilglfDNG6OSNxa9jhs5rhzEEHoK4rhmlVKhYjpB1fRY+ipMsczrg2PE0bRFbblK7Zt0aOiN56p+w+f87xpbqjmKWWCVk8Mjo5I3BzHsOzmuHOCCOgqw/SDq+ix9FSZY5nXBseJo2iK23KV2zbo0dEbz1T9h8/53jVsIi+6UO7wtdy47F29uduFT8mHvTSikLZ4lrbCc3FplNXFLrUqsluiIqUx8IiIAiIgCIiAIiIAiIgCIiAIiIAiIgCIiA1Tqp8njHfop3rNVRqty1U+Txjv0U/1mqo1R04+UMZd6m/8Aok91y/1P5ZCIinTVgiIgLAODV+I+MvStP7EqZChvwavxHxl6Vp/YlTIWgwjkUnl3qeWZ+/ET1mn6skSNX2kGLH0VXmdljb2x4mjaZblbYm7NujR0yMHVP2jz/neNXhLFLBK+GaN0ckbi17HDZzXDmIIPQVeMokavtIMWPoqvM7LG3tjxNG0y3K2xN2bdGjpkYOqftHn/ADvG5kXhG6UvDuld6Y7U29udtjMOfm9NGFxRriWMNrzcGWl1cFusWqyu5copZYJWTwyOjkjcHMew7Oa4c4II6CksUsEr4Zo3RyRuLXscNnNcOYgg9BXFSRutSoWI6QdX0WPoqTLHM64NjxNG0RW25Su2bdGjojeeqfsPn/O8aW6o5illglZNDI6OSNwcx7Ts5rhzggjoKsP0g6vosfRUmWOZ1wbHiaNoittylds26NHRG89U/YfP+d41bCIvulDu8LXcuOxdvbnbhU/Jh700opC2eJa2wnNxaZTVxS61KrJboiKlMfCIiAIiIAiIgCIiAItcY81IZA5X3w4ZzEzkwfh67tjbK+guF3hiqGMcN2udGXcZoI5xuBuOhY379fSP/wBRuX/88g/EgN1otKe/X0j/APUbl/8AzyD8Se/X0j/9RuX/APPIPxIDdaLSrdaukh7g0ajsvtydhvfYAP8AMu5lt+03e1X+10l7sVzpLjbq+FlRSVlJM2aCoieN2yRvaS17SCCCCQQUB7aIiA1Tqp8njHfop/rNVRqty1U+Txjv0U/1mqo1R04+UMZd6m/+iT3XL/U/lkIiKdNWCIiAsA4NX4j4y9K0/sSpkKG/Bq/EfGXpWn9iVMhaDCORSeXep5Zn78RPWafqyRK1HcJnp105YxqcvLo2+4pxJQENr6SxQRPjoXkA+DmllkY3j7HnazjEHmdxStP8tpkF3UZgfVovz1U9nRX1V0zix3c66Uy1NZia6TzSHpe99VI5x/xJK+lktp6zl1EXusw9k3gaqxHW26FtRViOeGnip43HZpfLO9kbSSDsC7c7HYHYrpEgS41Aa0tM+d2KqfFGDMEYswlfK6XiXKWthpfcVST0TP8ABylzJN+YuDSHb7nYguPwWua9oexwc1w3BB3BHasL5LjXZ3Gf/JrP/wDrW0ssNEWujB9G+04uyRqJbPTxukinixBap5acNBJYI46lz5Gnbma0F2+wAO+wmovCN0peHdK70x2pt7c7dgmHPzemjC4o1xLGG15uDLS6uC3WLVZ8NcopZYJWTQyOjkjcHMe07Oa4c4II6CksUsEr4Jo3RyRuLHscCHNcOYgg9BXFSRutSoS7whwmwyyy8ijzcwPiDFFXbdojc7O6F0skAHM+dkr2/CHQXtJ36SAdyfX5bTILuozA+rRfnqJTmte0se0Oa4bEEbgjsUes3conWB0uJ8MU5dbHEvqaZg3NKf2m/wAP1fk6K2ERfdKHd4Wu5cdi7e3O3Cp+TD3ppRSFs8S1thObi0ymril1qVWWdctpkF3UZgfVovz05bTILuozA+rRfnqmxFSmPlyfLaZBd1GYH1aL89OW0yC7qMwPq0X56psRAXJ8tpkF3UZgfVovz05bTILuozA+rRfnqmxEBcny2mQXdRmB9Wi/PTltMgu6jMD6tF+eqbEQGzdTGaNlzrz4xpmth2graK3YmuRrqenrWsE8TSxo4r+I5zd9wegn/wClrJEQBERAFZlpE4U/KjT7p2whk/jDAeM7vdsOsrI5qyi9zOge2WtnmjDDJK12zY5WN5wPF5ubZVmogLssE8MrpjxNf6ay4iw1jTC9PVSNjFyraSCamhJO3Gl8DK6RrR2tY7rU8aapp6ynirKOojngnY2SKWN4cyRjhuHNI5iCCCCF1XF2L9CFdVXDR5lLUVkxkkZhqmgDj1Mj3jYP8GtaP8EBkeqnyeMd+in+s1VGq3LVT5PGO/RTvWaqjVHTj5Qxl3qb/wCiT3XL/U/lkIiKdNWCIiAsA4NX4j4y9K0/sSpkKG/Bq/EfGXpWn9iVMhaDCORSeXep5Zn78RPWafqydYHNj9aeMvpBcf6mRWfcByxgwxm5IGjjGvs4LtucgR1Ww/1P+arBzY/WnjL6QXH+pkVn/AdfFXNv0hZ/Z1S6RIFn6IiAiRq+0gxY+iq8zssbe2PE0bTLcrbE3Zt0aOmRg6p+0ef87xq8JYpYJXwzRujkjcWvY4bOa4cxBB6CrxlEjV9pBix9FV5nZY29seJo2mW5W2Juzbo0dMjB1T9o8/53jTUXhG6UvDuld6Y7U29uduwTDn5vTRhcUa4ljDa83BlpdXBbrFqsruXFzWvaWPaHNcNiCNwR2LySxSwSvhmjdHJG4texw2c1w5iCD0FcVJG61KhHjN3KJ1gdLifDFOXWxxL6mmYNzSn9pv8AD9X5OjUym85rXtLHtDmuGxBG4I7FHrN3KJ1gdLifDFOXWxxL6mmYNzSn9pv8P1fk6K2ERfdKHd4Wu5cdi7e3O3Cp+TD3ppRSFs8S1thObi0ymril1qVWamRFt/TxpQzt1P3t9ryrwo+poqWVsVfeKt3gbfQkjf8ASSkc7tufiMDn84PF251SmPmoEVnc+kTg7tIcVPFqrzeq8a4ziiZPNh+3ySsj4x6Ginpf0rRvvs6aVjXAdA32Xq1HCS6K8AP9w5RaGbNU01KOJBU11JbrfNIB5znNhqHk/vc4ntQFZyKytvC55W3w+5Ma6JMLVtGPgsAuVNNxGfs8SSh2P+Y+Re9HnfwTGpGJlBmTk3PlNeH/AAG11vt/uKFrj0ESW/djvlmh23/zQFYyKfWenBWYkpcOx5o6S8ZwZq4MrIhUQU0U8T7iIz1xuj2iqQB0hvEf1BhKgVWUdXb6uegr6WamqqaR0M0EzCySKRp2c1zTztcCCCDzghAeJERAEREAXYo0B+RtlP8AR+P2j11112KNAfkbZT/R+P2j0BlWqnyeMd+in+s1VGq3LVT5PGO/RT/WaqjVHTj5Qxl3qb/6JPdcv9T+WQiIp01YIiICwDg1fiPjL0rT+xKmQob8Gr8R8Zelaf2JUyFoMI5FJ5d6nlmfvxE9Zp+rJ1gc2P1p4y+kFx/qZFt7R/rYzC0d3PEM+EbBab7bsTRwNrqC4ukaBJCX+DkjewgtcBI8HcEEEdgWoc2P1p4y+kFx/qZFiq6RIFlPLe5qdx+FP5jU/wCyct7mp3H4U/mNT/sq1kQFlPLe5qdx+FP5jU/7Jy3uancfhT+Y1P8Asq1kQEu8f62rPnjj9uJMRZY2nBtVcPg1tXbKuR8M8vVLLG8czj0OeDz8xIJ3csja5r2h7HBzXDcEHcEdqhCts5RZuusDosMYnqC62OIZTVLzuaU/su/h+r8nRNReEbpS8O6V3pjtTb2527BMOfm9NGFxRriWMNrzcGWl1cFusWqyQ6/Hta9pY9oc1w2II3BHYvxrmvaHscHNcNwQdwR2rkpI3WpUPg5PaOME5v572mwX7HdJhHCFWJKu48eQRzv8Hsfc1K5zTG18nPsZNmsDXEB5DY3boz312U1uorXpC4OTDFTarTDM22w3my07zV3CUn4TKEEGQ8Z25fVPPhHnjOBA/SP1m5rXtLHtDmuGxBG4I7FJ3g0LVp+y4xzf6aoskVFjvEUobablVua6NtNxRxqKmJH6Fzn8Zx5/0gLW7/Aa01sIi+6UO7wtdy47F29uduFT8mHvTSikLZ4lrbCc3FplNXFLrUqsxLTvwO14xG4Y31XYzrYaqtPuh9itNUJKpz3bkmqrHBw42+xLYw7ffxwVOTAehfSNl1QxUVhyCwjVOi2IqbxQNulQXfteEqvCOB6+YgDqAW9kVKY+a7vOnLT5iGmbSX3IzL+vhY3isbUYao38Qf8AbvH8H/BR0zi4J3SlmXTVVThKx12X94maTHVWWoc+mD9+l1LKXM4vVxYzH8oUz0QFIF+wRrS4K/GNPimyXn+1cC11axsk1MZJrJc3bHaKqgOxp5i3fY8zuY8R7gCtyZh5TZGcKDlnd88dPduZhPO6wwskxBh2aRrW3J5aeLHK7YMc9/EcIaocXjbcSYN5jFaNinCuG8b4er8J4wsdFebNdITT1lDWwtlhnjPmua7mPOAR2EAjnCpZz5y0zF4LnVPaM0so5ZqjB15dNJam1LnOiqKQuaam1VTul3F3YWuPOQI5B8Np2Ag1cbdcLPcKq0XegqKKuoZn01VS1MTo5YJWOLXxvY4Atc1wIII3BBBXrqx3hQcpsIZj4HwPrmyhoIv7ExnSQU+IDBGGnw727088oH/qfBfBIduZ0cYPOVXEgCIiALsUaA/I2yn+j8ftHrrrrsUaA/I2yn+j8ftHoDKtVPk8Y79FP9ZqqNVuWqnyeMd+in+s1VGqOnHyhjLvU3/0Se65f6n8shERTpqwREQFgHBq/EfGXpWn9iVMhQ34NX4j4y9K0/sSpkLQYRyKTy71PLM/fiJ6zT9WTrA5sfrTxl9ILj/UyLFVlWbH608ZfSC4/wBTIsVXSJAIiIAiIgCIiA2zlFm66wOiwxieoLrY4hlNUvO5pT+y7+H6vydEhWua9oexwc1w3BB3BHaoQqc2nfK4XHRJiTUHesTOpo8H4rNodDU88b6F7KJjOI7paWzVR6ebi79HFAM1F4RulLw7pXemO1NvbnbsEw5+b00YXFGuJYw2vNwZaXVwW6xarPCuUUssErJoZHRyRuDmPadnNcOcEEdBXja5r2h7HBzXDcEHcEdq5KSN1qVCxHSDq+ix9FSZY5nXBseJo2iK23KV2zbo0dEbz1T9h8/53jS3VHMUssErJoZHRyRuDmPadnNcOcEEdBVh+kHV9Fj6KkyxzOuDY8TRtEVtuUrtm3Ro6I3nqn7D5/zvGrYRF90od3ha7lx2Lt7c7cKn5MPemlFIWzxLW2E5uLTKauKXWpVZLdERUpj4UfdduQts1B6asWYXlomy3qz0ct8sMoaDJHX08bnsa07EgSN48R/dJ+4KQSICobg3rsdQGlbO3RzeKszVP9my3TDsUhbtGZwfF36Gx1cdPIf3zHnG6rSmhmp5n09RE+KWJxY9j2lrmuB2IIPOCD1KwnQNSx5WcJ9izLqkYKWnNZinD0UTPgtMUEskrGgdm1K0j5AojaqMN/3Q1L5p4cbHxIqLGF2bC3bb9C6qkdH/AODmoDVqIiALsUaA/I2yn+j8ftHrrrrsUaA/I2yn+j8ftHoDKtVPk8Y79FP9ZqqNVuWqnyeMd+in+s1VGqOnHyhjLvU3/wBEnuuX+p/LIREU6asEREBYBwavxHxl6Vp/YlTIUN+DV+I+MvStP7EqZC0GEcik8u9TyzP34ies0/Vk6wObH608ZfSC4/1MixVZVmx+tPGX0guP9TIsVXSJAIiIAiIgCIiAKxfTAz+9/BPag8Iv/SPtF6kurW/sxxx0FQP/ACpnlV0KwzgfMa2m540zJ044sBmsuY2HJH+53EcWR8LXxTRgHrfBUyE83RCOxAfE0U5JYgzz0+YtvWFbhJX4lwReWxi1OcHOqLfLA1zGxdYe18cxaD4wJaOdoB9CWKWCV8M0bo5I3Fr2OGzmuHMQQegrLODXxnPpb1pYv085gVD6NmI5pcNcaRpY19zpZnGkeR+zIx0rWHrMzOfYqcer7SDFj6KrzOyxt7Y8TRtMtytsTdm3Ro6ZGDqn7R5/zvGmovCN0peHdK70x2pt7c7dgmHPzemjC4o1xLGG15uDLS6uC3WLVZXcuUUssErJoZHRyRuDmPadnNcOcEEdBSWKWCV8M0bo5I3Fr2OGzmuHMQQegripI3WpULEdIOr6LH0VJljmdcGx4mjaIrbcpXbNujR0RvPVP2Hz/neNLdUcxSywSsmhkdHJG4OY9p2c1w5wQR0FWH6QdX0WPoqTLHM64NjxNG0RW25Su2bdGjojeeqfsPn/ADvGrYRF90od3ha7lx2Lt7c7cKn5MPemlFIWzxLW2E5uLTKauKXWpVZLdEWkdZ+eFt0/acMZY8qa73PcpaCW12RrSQ+S5VDHMgDdv2TvIf8AtjcqUx8rS0NVMeZnCnYqx9BI2ohjumK75DI08ZoilfNCwg9nFqWgfuUSdWeJP73ans1sQNk48VTjC6thdv0wsqXsj/8ABjVNPgx7RHkbp7zv1j3yiLH220y2mxPkZsJjCzwsjRv4wkqDSR79G8bh8lbVZWVVwq56+unfPU1MjpppXndz3uO7nE9ZJJKA8SIiALsUaA/I2yn+j8ftHrrrrsUaA/I2yn+j8ftHoDKtVPk8Y79FO9ZqqNVuWqnyeMd+in+s1VGqOnHyhjLvU3/0Se65f6n8shERTpqwREQFgHBq/EfGXpWn9iVMhQ34NX4j4y9K0/sSpkLQYRyKTy71PLM/fiJ6zT9WTrA5sfrTxl9ILj/UyLFVlWbH608ZfSC4/wBTIsVXSJAIiIAiIgCIiALLsoszsRZMZm4bzSwpLxLphq4RV0LSdmytB2kicdj8GRhex37nlYiiAs04SXKekzWwngzhAcgRJUW+40FJJf5qE/pqR7OL7mq37c7XxuHgJOYFjo49/OIl9wfut+y6rMBf2BiisoqHMrDkLW3agDww3CAbNFfAw9LCdhI1u/g3kb7NfHvWHoM1tTabMQVeX+ZUMt9ykxZx4L1apIRUto3yN4jqmOF24e0t+DLH57OpzmtB2/qK0IYnylrbRqw0E4juN9wkT/bNFHZal1TXWhpBPHp3jd1TTcXjMc13GkaN2yCQcYgCbmr7SDFj6KrzOyxt7Y8TRtMtytsTdm3Ro6ZGDqn7R5/zvGrwlilglfDNG6OSNxa9jhs5rhzEEHoKkjpw4ZLC9xp48M6n8OS2G5QDiHEFnpnzUspGw/TUo3kid0klnHBPmtWZagsNad9Rltmzd075rYOuOJCDJcLRT3OGKa5ADcvEDy2RlRt1OaPCfO8aai8I3Sl4d0rvTHam3tzt2CYc/N6aMLijXEsYbXm4MtLq4LdYtVkOlyillglZNDI6OSNwex7Ts5rhzggjoK/JI3xPdFKxzHsJa5rhsQR0ghfikjdalQsF0ta1rJfLI7CGd2JKK03O00r5or9cKhkFPV08bS5xnkeQ1krWgkuJAeAT43jQI1TZ4Y94SnUdYcmsjrXUzYStNVJBZjJG6MTNJAqLrVA7GOMNHwQ4BzWbDYPkLF89zWvaWPaHNcNiCNwR2LPsoM+sA6LcmswL/lplPNW5mYhmZHS3iR4mpaWlI5g9hIdHDE/jScRgPhHPaHuDWN4lbCIvulDu8LXcuOxdvbnbhU/Jh700opC2eJa2wnNxaZTVxS61KrPc4TXMLC2SGUuAdB2VVYwUFioqe4YkdGQHSFvwoGSjn2fLKX1LxvuD4I9BVa6+nijE+Ica4iuWLcWXeput5u9TJWV1bUv48s8zzu5zj+8n5B0DmXzFSmPhERAF2KNAfkbZT/R+P2j11112KNAfkbZT/R+P2j0BlWqnyeMd+ines1VGq3LVT5PGO/RT/WaqjVHTj5Qxl3qb/wCiT3XL/U/lkIiKdNWCIiAsA4NX4j4y9K0/sSpkKG/Bq/EfGXpWn9iVMhaDCORSeXep5Zn78RPWafqydYHNj9aeMvpBcf6mRYqsqzY/WnjL6QXH+pkWKrpEgEREAREQBERAEREAW/dMOtvPLSrXeAwJe46/Dc83hqzDtzBlopiSOM5mxDoZCBtx2Eb83GDttloJEBaDcs1+C+1qyR3rOG0XDKLH9ewitr6YmnZLMdhxjUMjfTy9R8JPGx23MV8+o4H3BOMnG45L6usOXy31I49JHJRw1JLD0fp6aoLX/KIx8irOToQFqNt4NXPrKLA1zq7rmHhXEtNbGeFpKKmM8dQYx4zGOlaGk7c4YT1EAnmC0e5rmOLHtLXNOxBGxBUJKmura3ie7KyefwY4rPCyF3FHYN+gLaeUWbrrA6LDGJ6gutjiGU1S87mlP7Lv4fq/J0TUXhG6UvDuld6Y7U29uduwTDn5vTRhcUa4ljDa83BlpdXBbrFqskOuLmte0se0Oa4bEEbgjsRrmvaHscHNcNwQdwR2rkpI3WpUI8Zu5ROsDpcT4Ypy62OJfU0zBuaU/tN/h+r8nRqZTec1r2lj2hzXDYgjcEdixDB2ioZ25g/3bwXmDh7CtRcAXUtLehM2KabfnihfGx2zj0hjgOwEnYKthEX3Sh3eFruXHYu3tztwqfkw96aUUhbPEtbYTm4tMpq4pdalVkUEVinIl5+96+X/ANat/IXGXgTNQIjcYc1cvXSAHitdJWtBP7yKc7f5FUpj5XauxRoD8jbKf6Px+0euvLfbNWYdvlxw/cPB+6rZVzUc/g3cZvhI3ljtj1jdp2K7DWgPyNsp/o/H7R6AyrVT5PGO/RT/AFmqo1W5aqfJ4x36Kf6zVUao6cfKGMu9Tf8A0Se65f6n8shERTpqwREQFgHBq/EfGXpWn9iVMhQ34NX4j4y9K0/sSpkLQYRyKTy71PLM/fiJ6zT9WTrEZzUVXbM4MdW6vgdDU0mJbnBNG7pZI2qkDmn94IIWHK/PUdwZmnXUbjGpzDujr7hbEleQ6vq7FPEyOueAB4SaKWN7ePsOdzOKSed3GK0/yJeQXevmB9ai/IXSJApsRXJ8iXkF3r5gfWovyE5EvILvXzA+tRfkICmxFcnyJeQXevmB9ai/ITkS8gu9fMD61F+QgKbEVyfIl5Bd6+YH1qL8hORLyC718wPrUX5CApsRXJ8iXkF3r5gfWovyE5EvILvXzA+tRfkICmxFcnyJeQXevmB9ai/ITkS8gu9fMD61F+QgKbEVyfIl5Bd6+YH1qL8hORLyC718wPrUX5CApsRXJ8iXkF3r5gfWovyE5EvILvXzA+tRfkICsXKLN11gdFhjE9QXWxxDKapedzSn9l38P1fk6JCtc17Q9jg5rhuCDuCO1S15EvILvXzA+tRfkL2MYcGSMssvJZMo8cYgxRV23eUWy8NhdLJABzsgfExvwh0hjgd+gEHYGai8I3Sl4d0rvTHam3tzt2CYc/N6aMLijXEsYbXm4MtLq4LdYtVkRFyillglZNDI6OSNwcx7Ts5rhzggjoKSxSwSvhmjdHJG4texw2c1w5iCD0FcVJG61Khs/GvCM6v8u8P0k+H5cK3230MLYqme5WqSWsbtzCSR7JWh4223dxd+bc77krW8vDH6upInRso8BROcCA9llm4zf3jecj/MFes5rXtLHtDmuGxBG4I7F97T/ot0z53YqqML4zxvizCV8rpePbYqKal9xVJPTCzwkRcyTfnDS4h2+w2IDTWwiL7pQ7vC13LjsXb2524VPyYe9NKKQtniWtsJzcWmU1cUutSqyB14u1dfrvXXy5yiWsuNTLV1Dw0NDpZHFzjsOYbknmHMuxHoOoqqg0d5SwVkDopHYap5g13SWSFz2O+Qtc0j9xWg8E8DVpjwzf6a9YixLjTFFPSyNkFtrauCGmmIO/Fl8DE2RzT2Ne3rU8aamp6Onio6OnjgggY2OKKNgayNjRsGtA5gAAAAFSmPmrtVPk8Y79FP9ZqqNVuWqnyeMd+in+s1VGqOnHyhjLvU3/0Se65f6n8shERTpqwREQFgHBq/EfGXpWn9iVMhQ34NX4j4y9K0/sSpkLQYRyKTy71PLM/fiJ6zT9WQiIukSAREQBERAEREAREQBERAEREAREQBERARI1faQYsfRVeZ2WNvbHiaNpluVtiaA26NHTIwdU/aPP8AneNXhLFLBK+CeN0ckbix7HDZzXA7EEHoKvGUSNX2kGLH0VXmdljb2x4mjaZblbYm7NujR0yMHVP2jz/neNNReEbpS8O6V3pjtTb2527BMOfm9NGFxRriWMNrzcGWl1cFusWqyu5copZYJWTQyOjkjcHMe07Oa4c4II6CksUsEr4Zo3RyRuLXscNnNcOYgg9BXFSRutSoWI6QdX0WPoqTLHM64NjxNG0RW25Su2bdGjojeeqfsPn/ADvGluqOYpZYJWTQyOjkjcHMe07Oa4c4II6CrD9IOr6LH0VJljmdcGx4mjaIrbcpXbNujR0RvPVP2Hz/AJ3jVsIi+6UO7wtdy47F29uduFT8mHvTSikLZ4lrbCc3FplNXFLrUqs3Dqp8njHfop/rNVRqty1U+Txjv0U/1mqo1fHOPlDGXep3/RJ7rl/qfyyERFOmrBERAWAcGr8R8Zelaf2JUyFDfg1fiPjL0rT+xKmQtBhHIpPLvU8sz9+InrNP1ZCIi6RIBERAEREAREQBERAEREAREQBERAEREAREQESNX2kGLH0VXmdljb2x4mjaZblbYm7NujR0yMHVP2jz/neNXhLFLBK+CeN0ckbix7HDZzXDmIIPQVeMokavtIMWPoqvM7LG3tjxNG0y3K2xN2bdGjpkYOqftHn/ADvGmovCN0peHdK70x2pt7c7dgmHPzemjC4o1xLGG15uDLS6uC3WLVZXcuUUssErJoZHRyRuDmPadnNcOcEEdBSWKWCV8M0bo5I3Fr2OGzmuHMQQegripI3WpUJf2TVs7MfTtjHK3MaqJxRFZZBbrg7oucbNnFsnZM1rSd+h4BPjD4UQERfQ8PUo9Izui0qylFJyYXBXWDLK7zTRZlGtJUuRaERaMEWimi66qpCIi+Y6x+yRvikdFI0tewlrgekEdIX4thagcC1eXOceKsMVNNJFCy4zVNGXN249LK4vicO34LgN+0HsWvV+5RhZJtWGrUWg+d0eWHx3YeJNaWW0RUyVKSVehzUNgjKSpvmEMe1L7dQ3yWOqp7kWl0UMsbHAskDQXAOG2zhvzjY7b7qY/vqdPHezY/tHfhVRqLrOkbl3SSSRREVExIiOejuGxx9afpSUbYaaopRKKFVEoprRbi3L31OnjvZsf2jvwp76nTx3s2P7R34VUai+nhG8aidficj2SQvp5T8fKW5e+p08d7Nj+0d+FPfU6eO9mx/aO/CqjUThG8aidfiPZJC+nlPx8pbl76nTx3s2P7R34U99Tp472bH9o78KqNROEbxqJ1+I9kkL6eU/HyluXvqdPHezY/tHfhT31OnjvZsf2jvwqo1E4RvGonX4j2SQvp5T8fKW5e+p08d7Nj+0d+FPfU6eO9mx/aO/CqjUThG8aidfiPZJC+nlPx8pbl76nTx3s2P7R34U99Tp472bH9o78KqNROEbxqJ1+I9kkL6eU/HyluXvqdPHezY/tHfhT31OnjvZsf2jvwqo1E4RvGonX4j2SQvp5T8fKW5e+p08d7Nj+0d+FPfU6eO9mx/aO/CqjUThG8aidfiPZJC+nlPx8pbl76nTx3s2P7R34U99Tp472bH9o78KqNROEbxqJ1+I9kkL6eU/HyluXvqdPHezY/tHfhT31OnjvZsf2jvwqo1E4RvGonX4j2SQvp5T8fKW5e+p08d7Nj+0d+FPfU6eO9mx/aO/CqjUThG8aidfiPZJC+nlPx8pL/VtZNO2Y7p8xsrcysOxYoJ41wtwm8FHcx/zGlwDWzDr3IDx07O8aICIuM9PCPUospooyq20GgQWFrBnVHPdWpRlmxWqKUTClESlEupsssooIiL5jrBe2y0XSVjZI6GZzXgOaQ3mIPWvXggnqp46WlhkmmmeI4442lznuJ2DQBzkk82ys/wNpJwfTYKw/T4g90MukVrpGVrWhuzagQtEgH/u3XQcIfKP6tIxcTE5Z0O02WJNp4rVtVoRNlvaeXVlpiiz5sdNecOT09Hi6zMLKWSckRVkBJJp5HDxTueMx2xAJIPM7jNrPxXhDFGBr1Nh3F9irLTcafx6eqiLHbdTh1Oaepw3B6irsVhma2EsK4nwhcXYlwzabsaamkfAa6ijn8E7bpbxweKfkVJFoVJS6K8MrQ1ftMgmNPZ8hrTELlWd0k1Xi0rQrNOC0LSmz7KU1IsyzWoKG3Yqmp7fRQUsQ32jhjDGjn7BzLDVGtJorQeg5NvdGEbxCIi/J+wiIgCIiAIiIAiIgCIiAIg6UQBERAEREAREQBERAEREAXOnp6irnjpaWCSaaZwZHHG0uc9xOwAA5ySepexaGMlulNHIxr2ukALXDcEKzbSNgrBtJhOS+0uErNDcmytaKyOgibOBxejwgbxv9V9jk677lUk6aDhThjXqJzaekY06Espo7lNRaP8AR7frTfqDNfNa2NoxRgVFptE4/TeG5+LNM3zOLzOaw8+5BO22xnIiK9c3OTcpPc5P/u08xR6Pvc4ntXt7WuxESxlME71vP//Z" parent="10" vertex="1">
          <mxGeometry x="8" y="31" width="42" height="24" as="geometry" />
        </mxCell>
        <UserObject label="&lt;div style=&quot;font-size: 1px&quot;&gt;&lt;font style=&quot;font-size:11.64px;font-family:Helvetica;color:#232f3e;direction:ltr;letter-spacing:0px;line-height:120%;opacity:1&quot;&gt;elefant.png&lt;/font&gt;&lt;/div&gt;" tags="Background" id="14">
          <mxCell style="verticalAlign=middle;align=center;overflow=width;vsdxID=18;fillColor=#D45B07;gradientColor=none;shape=stencil(nVfRcuMgDPwav2oAYTDPvfY/Om168Vwu6bjpXfr3JWdjkGTj5N4IWVmrXQnsBh8+9s/vu8aoj/Nw+rX727+e9w3+aIzpj/vd0J/jqsHHBh/eTsPu53D6PL6Ov9+fr8jr6vfpz/UJlzHOKgj6GmXU17hjArTtv52nMeDlcxgj9BRiwfkpRPMYdTETyoPHCTVtoQE3gVCCpi10gK6avojRcxHasPQFybSFoDuWv6geOWolP3rQLctfPDnVakEFlr9giRJ1a/1ljBbCGknSSI/Wyxfub7VLtmPdL83apbAwEW4NGO5XrAop4RJ1q15lTNIrOiG6VbP05gaxqnMSjXKWzQkbksKTeUgyN2HJ7UWXMVrKaSRDOba1IeGmsy7JyceN0IIlWh36Yw3vMU3vIt6YfARMJscEYT2g9WA7ykiBsesBToEn+M6DwkoFBkIgAS4AmkqCbj4y0iDZdDwsBmQJZ5E0VCqQ+HtNEHhqskxg2dGxRchZCBWXo4KeaopR01rXR1H5ydiBZaPuYi84NnMFaupw56BN/uBydso2/utpy8RH6EoPW0DWw4o1vRhqzAqmoY5Z2c0Th0NpWl+JSoeKni+jVJ/Iv9EfUcjaCAn8ve3B8XGR32Le+sNhfAma/197xQmenxaqYku+LBaw3BENylBDFDVDUSMyPvmgqAdz+kVyijALWzevotRCnA7WKwX/tKMUJShv3ARZtlGIzeCcZMEqEc0cOKnEsiwFOQZX5KFEM35ZeWG1YnIWXkpWX9T/i+A00yTiiBbfbG5aRMUYXu8d0Krh/w1dL5zNdVzwr5m4NX4J4eM3);strokeColor=none;spacingTop=-3;spacingBottom=-3;spacingLeft=-3;spacingRight=-3;points=[];labelBackgroundColor=none;rounded=0;html=1;whiteSpace=wrap;" parent="1" vertex="1">
            <mxGeometry x="789" y="876" width="48" height="48" as="geometry" />
          </mxCell>
        </UserObject>
        <UserObject label="&lt;div style=&quot;font-size: 1px&quot;&gt;&lt;font style=&quot;font-size:11.64px;font-family:Helvetica;color:#232f3e;direction:ltr;letter-spacing:0px;line-height:120%;opacity:1&quot;&gt;elefant_thumbnail.png&lt;/font&gt;&lt;/div&gt;" tags="Background" id="15">
          <mxCell style="verticalAlign=middle;align=center;overflow=width;vsdxID=20;fillColor=#D45B07;gradientColor=none;shape=stencil(nVfRcuMgDPwav2oAYTDPvfY/Om168Vwu6bjpXfr3JWdjkGTj5N4IWVmrXQnsBh8+9s/vu8aoj/Nw+rX727+e9w3+aIzpj/vd0J/jqsHHBh/eTsPu53D6PL6Ov9+fr8jr6vfpz/UJlzHOKgj6GmXU17hjArTtv52nMeDlcxgj9BRiwfkpRPMYdTETyoPHCTVtoQE3gVCCpi10gK6avojRcxHasPQFybSFoDuWv6geOWolP3rQLctfPDnVakEFlr9giRJ1a/1ljBbCGknSSI/Wyxfub7VLtmPdL83apbAwEW4NGO5XrAop4RJ1q15lTNIrOiG6VbP05gaxqnMSjXKWzQkbksKTeUgyN2HJ7UWXMVrKaSRDOba1IeGmsy7JyceN0IIlWh36Yw3vMU3vIt6YfARMJscEYT2g9WA7ykiBsesBToEn+M6DwkoFBkIgAS4AmkqCbj4y0iDZdDwsBmQJZ5E0VCqQ+HtNEHhqskxg2dGxRchZCBWXo4KeaopR01rXR1H5ydiBZaPuYi84NnMFaupw56BN/uBydso2/utpy8RH6EoPW0DWw4o1vRhqzAqmoY5Z2c0Th0NpWl+JSoeKni+jVJ/Iv9EfUcjaCAn8ve3B8XGR32Le+sNhfAma/197xQmenxaqYku+LBaw3BENylBDFDVDUSMyPvmgqAdz+kVyijALWzevotRCnA7WKwX/tKMUJShv3ARZtlGIzeCcZMEqEc0cOKnEsiwFOQZX5KFEM35ZeWG1YnIWXkpWX9T/i+A00yTiiBbfbG5aRMUYXu8d0Krh/w1dL5zNdVzwr5m4NX4J4eM3);strokeColor=none;spacingTop=-3;spacingBottom=-3;spacingLeft=-3;spacingRight=-3;points=[];labelBackgroundColor=none;rounded=0;html=1;whiteSpace=wrap;" parent="1" vertex="1">
            <mxGeometry x="789" y="956" width="48" height="48" as="geometry" />
          </mxCell>
        </UserObject>
        <UserObject label="&lt;div style=&quot;font-size: 1px&quot;&gt;&lt;font style=&quot;font-size:14.55px;font-family:Helvetica;color:#000000;direction:ltr;letter-spacing:0px;line-height:120%;opacity:1&quot;&gt;&lt;i&gt;Root Folder&lt;/i&gt;&lt;/font&gt;&lt;/div&gt;" tags="Background" id="16">
          <mxCell style="verticalAlign=middle;align=center;overflow=width;vsdxID=23;fillColor=none;gradientColor=none;shape=stencil(nZBRDoQgDERP03+WHsHFe5iISyOCQdT19kIaIxq//Jtp3zTpAFaTaUYNUkwx+F6v1EYD+AUpyRkdKCYFqACrzgf9C352LfuxyWRWg1/yhT/nRE5IsZWuZtCSK8CPeI0e/hF+jV7AJM4PO7KWCyr390bSiNtEtQM=);strokeColor=none;spacingTop=-3;spacingBottom=-3;spacingLeft=-3;spacingRight=-3;points=[];labelBackgroundColor=none;rounded=0;html=1;whiteSpace=wrap;" parent="1" vertex="1">
            <mxGeometry x="217" y="140" width="91" height="30" as="geometry" />
          </mxCell>
        </UserObject>
        <UserObject label="&lt;div style=&quot;font-size: 1px&quot;&gt;&lt;font style=&quot;font-size:14.55px;font-family:Helvetica;color:#000000;direction:ltr;letter-spacing:0px;line-height:120%;opacity:1&quot;&gt;&lt;i&gt;Institutions&lt;/i&gt;&lt;/font&gt;&lt;/div&gt;" tags="Background" id="17">
          <mxCell style="verticalAlign=middle;align=center;overflow=width;vsdxID=24;fillColor=none;gradientColor=none;shape=stencil(nZBRDoQgDERP03+WHsHFe5iISyOCQdT19kIaIxq//Jtp3zTpAFaTaUYNUkwx+F6v1EYD+AUpyRkdKCYFqACrzgf9C352LfuxyWRWg1/yhT/nRE5IsZWuZtCSK8CPeI0e/hF+jV7AJM4PO7KWCyr390bSiNtEtQM=);strokeColor=none;spacingTop=-3;spacingBottom=-3;spacingLeft=-3;spacingRight=-3;points=[];labelBackgroundColor=none;rounded=0;html=1;whiteSpace=wrap;" parent="1" vertex="1">
            <mxGeometry x="355" y="216" width="91" height="30" as="geometry" />
          </mxCell>
        </UserObject>
        <UserObject label="&lt;div style=&quot;font-size: 1px&quot;&gt;&lt;font style=&quot;font-size:14.55px;font-family:Helvetica;color:#000000;direction:ltr;letter-spacing:0px;line-height:120%;opacity:1&quot;&gt;&lt;i&gt;Collections&lt;/i&gt;&lt;/font&gt;&lt;/div&gt;" tags="Background" id="18">
          <mxCell style="verticalAlign=middle;align=center;overflow=width;vsdxID=25;fillColor=none;gradientColor=none;shape=stencil(nZBRDoQgDERP03+WHsHFe5iISyOCQdT19kIaIxq//Jtp3zTpAFaTaUYNUkwx+F6v1EYD+AUpyRkdKCYFqACrzgf9C352LfuxyWRWg1/yhT/nRE5IsZWuZtCSK8CPeI0e/hF+jV7AJM4PO7KWCyr390bSiNtEtQM=);strokeColor=none;spacingTop=-3;spacingBottom=-3;spacingLeft=-3;spacingRight=-3;points=[];labelBackgroundColor=none;rounded=0;html=1;whiteSpace=wrap;" parent="1" vertex="1">
            <mxGeometry x="498" y="476" width="80" height="30" as="geometry" />
          </mxCell>
        </UserObject>
        <UserObject label="&lt;div style=&quot;font-size: 1px&quot;&gt;&lt;font style=&quot;font-size:14.55px;font-family:Helvetica;color:#000000;direction:ltr;letter-spacing:0px;line-height:120%;opacity:1&quot;&gt;&lt;i&gt;Assets&lt;/i&gt;&lt;/font&gt;&lt;/div&gt;" tags="Background" id="19">
          <mxCell style="verticalAlign=middle;align=center;overflow=width;vsdxID=26;fillColor=none;gradientColor=none;shape=stencil(nZBRDoQgDERP03+WHsHFe5iISyOCQdT19kIaIxq//Jtp3zTpAFaTaUYNUkwx+F6v1EYD+AUpyRkdKCYFqACrzgf9C352LfuxyWRWg1/yhT/nRE5IsZWuZtCSK8CPeI0e/hF+jV7AJM4PO7KWCyr390bSiNtEtQM=);strokeColor=none;spacingTop=-3;spacingBottom=-3;spacingLeft=-3;spacingRight=-3;points=[];labelBackgroundColor=none;rounded=0;html=1;whiteSpace=wrap;" parent="1" vertex="1">
            <mxGeometry x="630" y="646" width="91" height="30" as="geometry" />
          </mxCell>
        </UserObject>
        <UserObject label="&lt;div style=&quot;font-size: 1px&quot;&gt;&lt;font style=&quot;font-size:14.55px;font-family:Helvetica;color:#000000;direction:ltr;letter-spacing:0px;line-height:120%;opacity:1&quot;&gt;&lt;i&gt;Files&lt;/i&gt;&lt;/font&gt;&lt;/div&gt;" tags="Background" id="20">
          <mxCell style="verticalAlign=middle;align=center;overflow=width;vsdxID=27;fillColor=none;gradientColor=none;shape=stencil(nZBRDoQgDERP03+WHsHFe5iISyOCQdT19kIaIxq//Jtp3zTpAFaTaUYNUkwx+F6v1EYD+AUpyRkdKCYFqACrzgf9C352LfuxyWRWg1/yhT/nRE5IsZWuZtCSK8CPeI0e/hF+jV7AJM4PO7KWCyr390bSiNtEtQM=);strokeColor=none;spacingTop=-3;spacingBottom=-3;spacingLeft=-3;spacingRight=-3;points=[];labelBackgroundColor=none;rounded=0;html=1;whiteSpace=wrap;" parent="1" vertex="1">
            <mxGeometry x="767" y="726" width="91" height="30" as="geometry" />
          </mxCell>
        </UserObject>
        <UserObject label="&lt;div style=&quot;font-size: 1px&quot;&gt;&lt;font style=&quot;font-size:29.1px;font-family:Helvetica;color:#000000;direction:ltr;letter-spacing:0px;line-height:120%;opacity:1&quot;&gt;v 1.0.0&lt;/font&gt;&lt;/div&gt;" tags="Background" id="21">
          <mxCell style="verticalAlign=middle;align=center;overflow=width;vsdxID=28;fillColor=none;gradientColor=none;shape=stencil(nZBRDoQgDERP03+WHsHFe5iISyOCQdT19kIaIxq//Jtp3zTpAFaTaUYNUkwx+F6v1EYD+AUpyRkdKCYFqACrzgf9C352LfuxyWRWg1/yhT/nRE5IsZWuZtCSK8CPeI0e/hF+jV7AJM4PO7KWCyr390bSiNtEtQM=);strokeColor=none;spacingTop=-3;spacingBottom=-3;spacingLeft=-3;spacingRight=-3;points=[];labelBackgroundColor=none;rounded=0;html=1;whiteSpace=wrap;" parent="1" vertex="1">
            <mxGeometry x="870" y="40" width="120" height="50" as="geometry" />
          </mxCell>
        </UserObject>
        <UserObject label="" tags="Background" id="22">
          <mxCell style="vsdxID=2;edgeStyle=none;startArrow=none;endArrow=classic;startSize=5;endSize=5;strokeColor=#000000;spacingTop=0;spacingBottom=0;spacingLeft=0;spacingRight=0;verticalAlign=middle;html=1;labelBackgroundColor=#ffffff;rounded=0;exitX=1;exitY=0.5;exitDx=0;exitDy=0;exitPerimeter=0;entryX=0;entryY=0.5357142857142857;entryDx=0;entryDy=0;entryPerimeter=0;" parent="1" source="3" target="4" edge="1">
            <mxGeometry relative="1" as="geometry">
              <mxPoint x="-21" y="128" as="offset" />
              <Array as="points">
                <mxPoint x="318" y="218" />
                <mxPoint x="318" y="300" />
              </Array>
            </mxGeometry>
          </mxCell>
        </UserObject>
        <UserObject label="" tags="Background" id="23">
          <mxCell style="vsdxID=5;edgeStyle=none;startArrow=none;endArrow=classic;startSize=5;endSize=5;strokeColor=#000000;spacingTop=0;spacingBottom=0;spacingLeft=0;spacingRight=0;verticalAlign=middle;html=1;labelBackgroundColor=#ffffff;rounded=0;exitX=1;exitY=0.5;exitDx=0;exitDy=0;exitPerimeter=0;entryX=-0.014492753623188406;entryY=0.5535714285714286;entryDx=0;entryDy=0;entryPerimeter=0;" parent="1" source="3" target="7" edge="1">
            <mxGeometry relative="1" as="geometry">
              <mxPoint x="-21" y="174" as="offset" />
              <Array as="points">
                <mxPoint x="318" y="218" />
                <mxPoint x="318" y="391" />
              </Array>
            </mxGeometry>
          </mxCell>
        </UserObject>
        <UserObject label="" tags="Background" id="24">
          <mxCell style="vsdxID=7;edgeStyle=none;startArrow=none;endArrow=classic;startSize=5;endSize=5;strokeColor=#000000;spacingTop=0;spacingBottom=0;spacingLeft=0;spacingRight=0;verticalAlign=middle;html=1;labelBackgroundColor=#ffffff;rounded=0;exitX=1;exitY=0.5;exitDx=0;exitDy=0;exitPerimeter=0;entryX=-0.014492753623188406;entryY=0.5178571428571429;entryDx=0;entryDy=0;entryPerimeter=0;" parent="1" source="3" target="6" edge="1">
            <mxGeometry relative="1" as="geometry">
              <mxPoint x="-21" y="218" as="offset" />
              <Array as="points">
                <mxPoint x="318" y="218" />
                <mxPoint x="318" y="479" />
              </Array>
            </mxGeometry>
          </mxCell>
        </UserObject>
        <UserObject label="" tags="Background" id="25">
          <mxCell style="vsdxID=10;edgeStyle=none;startArrow=none;endArrow=classic;startSize=5;endSize=5;strokeColor=#000000;spacingTop=0;spacingBottom=0;spacingLeft=0;spacingRight=0;verticalAlign=middle;html=1;labelBackgroundColor=#ffffff;rounded=0;exitX=1;exitY=0.5;exitDx=0;exitDy=0;exitPerimeter=0;entryX=-0.014492753623188406;entryY=0.5535714285714286;entryDx=0;entryDy=0;entryPerimeter=0;" parent="1" source="6" target="5" edge="1">
            <mxGeometry relative="1" as="geometry">
              <mxPoint x="-33" y="142" as="offset" />
              <Array as="points">
                <mxPoint x="468" y="478" />
                <mxPoint x="468" y="562" />
              </Array>
            </mxGeometry>
          </mxCell>
        </UserObject>
        <UserObject label="" tags="Background" id="26">
          <mxCell style="vsdxID=11;edgeStyle=none;startArrow=none;endArrow=classic;startSize=5;endSize=5;strokeColor=#000000;spacingTop=0;spacingBottom=0;spacingLeft=0;spacingRight=0;verticalAlign=middle;html=1;labelBackgroundColor=#ffffff;rounded=0;exitX=1;exitY=0.5;exitDx=0;exitDy=0;exitPerimeter=0;entryX=0;entryY=0.5535714285714286;entryDx=0;entryDy=0;entryPerimeter=0;" parent="1" source="6" target="8" edge="1">
            <mxGeometry relative="1" as="geometry">
              <mxPoint x="-33" y="186" as="offset" />
              <Array as="points">
                <mxPoint x="468" y="478" />
                <mxPoint x="468" y="652" />
              </Array>
            </mxGeometry>
          </mxCell>
        </UserObject>
        <UserObject label="" tags="Background" id="27">
          <mxCell style="vsdxID=13;edgeStyle=none;startArrow=none;endArrow=classic;startSize=5;endSize=5;strokeColor=#000000;spacingTop=0;spacingBottom=0;spacingLeft=0;spacingRight=0;verticalAlign=middle;html=1;labelBackgroundColor=#ffffff;rounded=0;exitX=1;exitY=0.5;exitDx=0;exitDy=0;exitPerimeter=0;entryX=0;entryY=0.4642857142857143;entryDx=0;entryDy=0;entryPerimeter=0;" parent="1" source="8" target="9" edge="1">
            <mxGeometry relative="1" as="geometry">
              <mxPoint x="-34" y="140" as="offset" />
              <Array as="points">
                <mxPoint x="607" y="648" />
                <mxPoint x="607" y="727" />
              </Array>
            </mxGeometry>
          </mxCell>
        </UserObject>
        <UserObject label="" tags="Background" id="28">
          <mxCell style="vsdxID=15;edgeStyle=none;startArrow=none;endArrow=classic;startSize=5;endSize=5;strokeColor=#000000;spacingTop=0;spacingBottom=0;spacingLeft=0;spacingRight=0;verticalAlign=middle;html=1;labelBackgroundColor=#ffffff;rounded=0;exitX=1;exitY=0.5;exitDx=0;exitDy=0;exitPerimeter=0;entryX=-0.05357142857142857;entryY=0.5507246376811594;entryDx=0;entryDy=0;entryPerimeter=0;" parent="1" source="9" target="12" edge="1">
            <mxGeometry relative="1" as="geometry">
              <mxPoint x="-35" y="146" as="offset" />
              <Array as="points">
                <mxPoint x="745" y="728" />
                <mxPoint x="745" y="819" />
              </Array>
            </mxGeometry>
          </mxCell>
        </UserObject>
        <UserObject label="" tags="Background" id="29">
          <mxCell style="vsdxID=17;edgeStyle=none;startArrow=none;endArrow=classic;startSize=5;endSize=5;strokeColor=#000000;spacingTop=0;spacingBottom=0;spacingLeft=0;spacingRight=0;verticalAlign=middle;html=1;labelBackgroundColor=#ffffff;rounded=0;exitX=1;exitY=0.5;exitDx=0;exitDy=0;exitPerimeter=0;entryX=0;entryY=0.5;entryDx=0;entryDy=0;entryPerimeter=0;" parent="1" source="9" target="14" edge="1">
            <mxGeometry relative="1" as="geometry">
              <mxPoint x="-35" y="182" as="offset" />
              <Array as="points">
                <mxPoint x="745" y="728" />
                <mxPoint x="745" y="900" />
              </Array>
            </mxGeometry>
          </mxCell>
        </UserObject>
        <UserObject label="" tags="Background" id="30">
          <mxCell style="vsdxID=19;edgeStyle=none;startArrow=none;endArrow=classic;startSize=5;endSize=5;strokeColor=#000000;spacingTop=0;spacingBottom=0;spacingLeft=0;spacingRight=0;verticalAlign=middle;html=1;labelBackgroundColor=#ffffff;rounded=0;exitX=1;exitY=0.5;exitDx=0;exitDy=0;exitPerimeter=0;entryX=0;entryY=0.5;entryDx=0;entryDy=0;entryPerimeter=0;" parent="1" source="9" target="15" edge="1">
            <mxGeometry relative="1" as="geometry">
              <mxPoint x="-35" y="222" as="offset" />
              <Array as="points">
                <mxPoint x="745" y="728" />
                <mxPoint x="745" y="980" />
              </Array>
            </mxGeometry>
          </mxCell>
        </UserObject>
      </root>
    </mxGraphModel>
  </diagram>
</mxfile>
